<svg viewBox="0 0 21 22" version="1.1" xmlns="http://www.w3.org/2000/svg">
<g id="Functions" transform="translate(-79.000000, -1.000000)">
<g id="icon/action/shopping-cart/default" transform="translate(79.000000, 1.000000)">
<path d="M5.50581329,17.7221129 C6.42723187,17.7221129 7.17418921,18.4745478 7.17418921,19.4027231 C7.17418921,20.3308985 6.42723187,21.0833333 5.50581329,21.0833333 C4.58439472,21.0833333 3.83743738,20.3308985 3.83743738,19.4027231 C3.83743738,18.4745478 4.58439472,17.7221129 5.50581329,17.7221129 Z M18.0186327,17.7221129 C18.9400512,17.7221129 19.6870086,18.4745478 19.6870086,19.4027231 C19.6870086,20.3308985 18.9400512,21.0833333 18.0186327,21.0833333 C17.0972141,21.0833333 16.3502568,20.3308985 16.3502568,19.4027231 C16.3502568,18.4745478 17.0972141,17.7221129 18.0186327,17.7221129 Z M0.967830799,1.29834981 C1.10547181,0.979033875 1.47251451,0.831980483 1.78950594,0.966429298 L1.78950594,0.966429298 L3.6831126,1.78572677 C4.25036042,2.02941525 4.69248003,2.47477695 4.9510783,3.01677374 L4.9510783,3.01677374 L20.1666667,3.01677374 L19.4200684,10.9240447 C19.3032821,12.1634947 18.3231113,13.1214425 17.0885131,13.2012715 L17.0885131,13.2012715 L6.12311238,13.9155309 L6.1773346,14.4785353 C6.2398987,15.1297717 6.77377899,15.6213502 7.4244456,15.6213502 L7.4244456,15.6213502 L18.6442736,15.6213502 C18.9904616,15.6213502 19.2699146,15.9028524 19.2699146,16.251579 C19.2699146,16.6003056 18.9904616,16.8818078 18.6442736,16.8818078 L18.6442736,16.8818078 L7.4244456,16.8818078 C6.12311238,16.8818078 5.05118086,15.8986509 4.93439454,14.6003795 L4.93439454,14.6003795 L3.94588181,3.98732612 C3.90000147,3.52515832 3.61220663,3.1260134 3.19094171,2.9453478 L3.19094171,2.9453478 L1.29733504,2.12605033 C0.980343619,1.98739999 0.830189786,1.61766575 0.967830799,1.29834981 Z M18.7944275,4.27723138 L5.23053127,4.27723138 L6.01049701,12.6592747 L17.0092652,11.9450154 C17.6265643,11.9030001 18.1145643,11.4240262 18.1729574,10.806402 L18.1729574,10.806402 L18.7944275,4.27723138 Z" id="Combined-Shape" fill="#e20074"></path>
</g>
</g>
</svg>
