<svg width="233" height="18" viewBox="0 0 233 18" fill="none" xmlns="http://www.w3.org/2000/svg">
<g clip-path="url(#clip0_0_3)">
<path d="M230.28 11.8893H231.335H232.775V14.3842H230.28V11.8893Z" fill="white"/>
<path d="M222.837 5.59349H225.608V14.3842H227.793V5.59349H230.565V3.57581H222.837V5.59349Z" fill="white"/>
<path d="M138.837 5.59349H141.608V14.3842H143.793V5.59349H146.565V3.57581H138.837V5.59349Z" fill="white"/>
<path d="M221.925 5.59349V3.57581H215.562V14.3842H221.925V12.3665H217.747V9.90512H221.757V7.87907H217.747V5.59349H221.925Z" fill="white"/>
<path d="M205.624 14.3842H209.383C212.196 14.3842 213.963 12.4921 213.963 8.97582C213.963 5.45954 212.196 3.56744 209.383 3.56744H205.624V14.3842ZM207.809 12.3665V5.60186H209.216C210.723 5.60186 211.694 6.60651 211.694 8.98419C211.694 11.3619 210.723 12.3665 209.216 12.3665H207.809Z" fill="white"/>
<path d="M201.338 3.57581V10.374H201.246L197.361 3.57581H195.142V14.3842H197.327V7.61953H197.428L201.313 14.3842H203.514V3.57581H201.338Z" fill="white"/>
<path d="M190.839 14.3842H193.024V3.57581H191.86H190.839V14.3842Z" fill="white"/>
<path d="M114.839 14.3842H117.024V3.57581H115.86H114.839V14.3842Z" fill="white"/>
<path d="M187.783 8.98419V8.91721C188.612 8.43163 189.114 7.56093 189.114 6.43907C189.114 4.88186 188.177 3.57581 185.958 3.57581H181.847V14.3926H185.874C188.219 14.3926 189.206 13.0446 189.206 11.3953C189.206 10.2567 188.687 9.40279 187.783 8.98419ZM185.665 5.50139C186.377 5.50139 186.846 5.98698 186.846 6.74884C186.846 7.49395 186.393 8.01302 185.665 8.01302H184.033V5.50139H185.665ZM185.615 12.4586H184.024V9.87163H185.615C186.477 9.87163 186.946 10.374 186.946 11.1526C186.938 11.973 186.469 12.4586 185.615 12.4586Z" fill="white"/>
<path d="M177.996 14.3842H180.424L178.139 10.2065C179.453 9.77117 180.307 8.6493 180.307 7C180.307 4.81489 178.817 3.56744 176.715 3.56744H172.714V14.3842H174.899V10.4326H175.953L177.996 14.3842ZM174.899 5.59349H176.598C177.46 5.59349 178.038 6.09582 178.038 7C178.038 7.90419 177.452 8.40651 176.598 8.40651H174.899V5.59349Z" fill="white"/>
<path d="M170.863 5.59349V3.57581H164.5V14.3842H170.863V12.3665H166.686V9.90512H170.696V7.87907H166.686V5.59349H170.863Z" fill="white"/>
<path d="M161.378 3.57581L159.05 10.893H158.95L156.639 3.57581H154.387L157.912 14.3842H160.105L163.63 3.57581H161.378Z" fill="white"/>
<path d="M93.8856 14.627C95.9284 14.627 97.5274 13.413 97.5274 11.2447C97.5274 9.68744 96.5228 8.50698 94.9237 8.08837L93.6763 7.74512C93.0735 7.58605 92.5712 7.30977 92.5712 6.54791C92.5712 5.78605 93.1405 5.36744 93.8856 5.36744C94.7312 5.36744 95.1833 5.7693 95.3256 6.5814H97.4605C97.2512 4.58884 96.0707 3.32465 93.8856 3.32465C91.8763 3.32465 90.3442 4.62233 90.3442 6.69024C90.3442 8.04651 91.0223 9.29396 92.7553 9.76279L94.0028 10.1144C94.8484 10.3405 95.3005 10.6837 95.3005 11.3619C95.3005 12.0567 94.8316 12.5758 93.894 12.5758C93.0986 12.5758 92.5042 12.2242 92.3033 11.3116H90.1349C90.3191 13.4633 91.6502 14.627 93.8856 14.627Z" fill="white"/>
<path d="M87.4809 14.3842H89.6995L86.0074 3.56744H83.8223L80.1302 14.3842H82.3488L83.0437 12.2995H86.7693L87.4809 14.3842ZM83.7218 10.2567L84.8521 6.90791H84.9525L86.0828 10.2567H83.7218Z" fill="white"/>
<path d="M78.5981 3.57581L76.8484 10.8093H76.7563L74.9898 3.57581H72.5618L70.8121 10.8093H70.7116L68.9535 3.57581H66.7014L69.5814 14.3842H71.9256L73.7256 7.30977H73.826L75.6344 14.3842H77.9702L80.8502 3.57581H78.5981Z" fill="white"/>
<path d="M60.6484 11.8893V14.3842H61.8288V14.4512C61.8288 15.3888 61.5358 15.8242 60.6484 15.8744V17.0214C62.4651 16.9377 63.1433 15.8744 63.1433 14.1916V11.8893H60.6484Z" fill="white"/>
<path d="M56.6214 3.57581V10.374H56.5293L52.6446 3.57581H50.426V14.3842H52.6111V7.61953H52.7032L56.5879 14.3842H58.7981V3.57581H56.6214Z" fill="white"/>
<path d="M109.621 3.57581V10.374H109.529L105.645 3.57581H103.426V14.3842H105.611V7.61953H105.703L109.588 14.3842H111.798V3.57581H109.621Z" fill="white"/>
<path d="M48.5674 5.59349V3.57581H42.2047V14.3842H48.5674V12.3665H44.3898V9.90512H48.4084V7.87907H44.3898V5.59349H48.5674Z" fill="white"/>
<path d="M39.0735 8.98419V8.91721C39.9023 8.43163 40.4046 7.56093 40.4046 6.43907C40.4046 4.88186 39.467 3.57581 37.2484 3.57581H33.1377V14.3926H37.1646C39.5088 14.3926 40.4967 13.0446 40.4967 11.3953C40.4967 10.2567 39.9777 9.40279 39.0735 8.98419ZM36.947 5.50139C37.6586 5.50139 38.1274 5.98698 38.1274 6.74884C38.1274 7.49395 37.6753 8.01302 36.947 8.01302H35.3144V5.50139H36.947ZM36.9051 12.4586H35.3144V9.87163H36.9051C37.7674 9.87163 38.2363 10.374 38.2363 11.1526C38.2279 11.973 37.7591 12.4586 36.9051 12.4586Z" fill="white"/>
<path d="M31.2707 5.59349V3.57581H24.9079V14.3842H31.2707V12.3665H27.093V9.90512H31.1116V7.87907H27.093V5.59349H31.2707Z" fill="white"/>
<path d="M17.6158 14.3842H23.6688V12.3665H19.8009V3.57581H17.6158V14.3842Z" fill="white"/>
<path d="M13.7646 14.3842H16.1925L13.907 10.2065C15.2214 9.77117 16.0753 8.6493 16.0753 7C16.0753 4.81489 14.5851 3.56744 12.4837 3.56744H8.48184V14.3842H10.667V10.4326H11.7218L13.7646 14.3842ZM10.6753 5.59349H12.3749C13.2372 5.59349 13.8149 6.09582 13.8149 7C13.8149 7.90419 13.2288 8.40651 12.3749 8.40651H10.6753V5.59349Z" fill="white"/>
<path d="M6.63162 5.59349V3.57581H0.268829V14.3842H6.63162V12.3665H2.45395V9.90512H6.47255V7.87907H2.45395V5.59349H6.63162Z" fill="white"/>
<path d="M125.134 10.4624H127.324C127.28 11.1802 127.082 11.8174 126.73 12.374C126.384 12.9307 125.898 13.3652 125.273 13.6777C124.653 13.9902 123.906 14.1465 123.032 14.1465C122.348 14.1465 121.735 14.0293 121.193 13.7949C120.651 13.5557 120.188 13.2139 119.802 12.7695C119.421 12.3252 119.13 11.7881 118.93 11.1582C118.73 10.5283 118.63 9.82275 118.63 9.0415V8.30176C118.63 7.52051 118.732 6.81494 118.938 6.18506C119.147 5.55029 119.445 5.01074 119.831 4.56641C120.222 4.12207 120.688 3.78027 121.23 3.54102C121.772 3.30176 122.377 3.18213 123.046 3.18213C123.935 3.18213 124.685 3.34326 125.295 3.66553C125.91 3.98779 126.386 4.43213 126.723 4.99854C127.065 5.56494 127.27 6.20947 127.338 6.93213H125.141C125.117 6.50244 125.031 6.13867 124.885 5.84082C124.738 5.53809 124.516 5.31104 124.218 5.15967C123.925 5.00342 123.535 4.92529 123.046 4.92529C122.68 4.92529 122.36 4.99365 122.087 5.13037C121.813 5.26709 121.584 5.47461 121.398 5.75293C121.213 6.03125 121.074 6.38281 120.981 6.80762C120.893 7.22754 120.849 7.7207 120.849 8.28711V9.0415C120.849 9.59326 120.891 10.0791 120.974 10.499C121.057 10.9141 121.184 11.2656 121.354 11.5537C121.53 11.8369 121.755 12.0518 122.028 12.1982C122.307 12.3398 122.641 12.4106 123.032 12.4106C123.491 12.4106 123.869 12.3374 124.167 12.1909C124.465 12.0444 124.692 11.8271 124.848 11.5391C125.009 11.251 125.104 10.8921 125.134 10.4624ZM135.878 7.6792V9.39307H130.312V7.6792H135.878ZM130.964 3.33594V14H128.767V3.33594H130.964ZM137.446 3.33594V14H135.256V3.33594H137.446Z" fill="white"/>
</g>
<defs>
<clipPath id="clip0_0_3">
<rect width="232.506" height="17.0214" fill="white" transform="translate(0.268829)"/>
</clipPath>
</defs>
</svg>
