<svg width="22px" height="20px" viewBox="0 0 22 20" version="1.1" xmlns="http://www.w3.org/2000/svg" xmlns:xlink="http://www.w3.org/1999/xlink">
    <g id="Functions" transform="translate(-179.000000, -2.000000)">
        <g id="Group" transform="translate(178.000000, 0.000000)">
            <path d="M8.9,16.5 L12,19.6 L15.1,16.5 L17.35,16.5 C19.7,16.5 21.65,18.15 22.05,20.45 L22.05,20.45 L22.2,21.5 L1.8,21.5 L1.95,20.45 C2.35,18.15 4.3,16.5 6.65,16.5 L6.65,16.5 L8.9,16.5 Z M12,2 C15.5,2 18,4.5 18,8 C18,9.25 17.65,10.55 17.05,11.65 C16.05,13.55 14.25,15 12,15 C9.75,15 7.95,13.55 6.95,11.65 C6.35,10.55 6,9.25 6,8 C6,4.5 8.5,2 12,2 Z M12,3.5 C9.4,3.5 7.5,5.4 7.5,8 C7.5,8.85 7.7,9.75 8.05,10.55 C8.75,12.2 10.2,13.5 12,13.5 C13.8,13.5 15.25,12.2 15.95,10.55 C16.3,9.75 16.5,8.85 16.5,8 C16.5,5.4 14.6,3.5 12,3.5 Z" id="Combined-Shape"></path>
        </g>
    </g>
</svg>
