<svg width="24px" height="24px" viewBox="0 0 24 24" version="1.1" xmlns="http://www.w3.org/2000/svg" xmlns:xlink="http://www.w3.org/1999/xlink">
    <title>icon/action/menu/default</title>
    <g id="icon/action/menu/default" fill-rule="evenodd">
        <path d="M14.75,16.5 C15.15,16.5 15.5,16.85 15.5,17.25 C15.5,17.65 15.15,18 14.75,18 L14.75,18 L4.24999997,18 C3.84999997,18 3.49999996,17.65 3.49999996,17.25 C3.49999996,16.85 3.84999997,16.5 4.24999997,16.5 L4.24999997,16.5 Z M19.75,11 C20.15,11 20.5,11.35 20.5,11.75 C20.5,12.15 20.15,12.5 19.75,12.5 L19.75,12.5 L4.24999997,12.5 C3.84999997,12.5 3.49999996,12.15 3.49999996,11.75 C3.49999996,11.35 3.84999997,11 4.24999997,11 L4.24999997,11 Z M19.75,5.49999997 C20.15,5.49999997 20.5,5.84999997 20.5,6.24999998 C20.5,6.64999998 20.15,6.99999997 19.75,6.99999997 L19.75,6.99999997 L4.24999997,6.99999997 C3.84999997,6.99999997 3.49999996,6.64999998 3.49999996,6.24999998 C3.49999996,5.84999997 3.84999997,5.49999997 4.24999997,5.49999997 L4.24999997,5.49999997 Z" id="Combined-Shape"></path>
    </g>
</svg>
