<svg viewBox="0 0 20 20" version="1.1" xmlns="http://www.w3.org/2000/svg" xmlns:xlink="http://www.w3.org/1999/xlink">
<g id="Group" transform="translate(-2.000000, -2.000000)">
<g id="Icons/Topup" transform="translate(0.000000, 0.000000)"></g>
<path d="M10,2 C14.417969,2 18,5.582031 18,10 C18,11.7576866 17.4330211,13.3830574 16.4719938,14.703182 L21.3838835,19.6161165 L21.4447875,19.6814591 C21.8711161,20.1725208 21.8508147,20.9169523 21.3838835,21.3838835 C20.9282718,21.8394952 20.2084514,21.8698693 19.7176119,21.4750058 L19.6161165,21.3838835 L14.703182,16.4719938 C13.3830574,17.4330211 11.7576866,18 10,18 C5.582031,18 2,14.417969 2,10 C2,5.582031 5.582031,2 10,2 Z M10,3.5 C6.4160155,3.5 3.5,6.4160155 3.5,10 C3.5,13.5839845 6.4160155,16.5 10,16.5 C13.5839845,16.5 16.5,13.5839845 16.5,10 C16.5,6.4160155 13.5839845,3.5 10,3.5 Z" id="Search" fill="#e20074"></path>
</g>
</svg>
