<?xml version="1.0" encoding="UTF-8"?>
<svg width="105px" height="42px" viewBox="0 0 105 42" version="1.1" xmlns="http://www.w3.org/2000/svg" xmlns:xlink="http://www.w3.org/1999/xlink">
    <title>T5G_Logo_Weiss</title>
    <defs>
        <polygon id="path-1" points="0 0 105 0 105 42 0 42"></polygon>
    </defs>
    <g id="Teaser" stroke="none" stroke-width="1" fill="none" fill-rule="evenodd">
        <g id="telekom-startseite-aktionstage-stage-xxl" transform="translate(-705.000000, -140.000000)">
            <g id="copy" transform="translate(704.000000, 132.000000)">
                <g id="T5G_Logo_Weiss" transform="translate(1.000000, 8.000000)">
                    <mask id="mask-2" fill="white">
                        <use xlink:href="#path-1"></use>
                    </mask>
                    <g id="Clip-2"></g>
                    <polygon id="Fill-1" fill="#FFFFFE" mask="url(#mask-2)" points="-3.54938015e-16 27.8852344 8.20084422 27.8852344 8.20084422 19.6532237 -3.54938015e-16 19.6532237"></polygon>
                    <polygon id="Fill-3" fill="#FFFFFE" mask="url(#mask-2)" points="25.0278113 27.8852344 33.2380126 27.8852344 33.2380126 19.6532237 25.0278113 19.6532237"></polygon>
                    <path d="M32.8320719,0.797105172 L0.396739582,0.797105172 L-0.00935706562,15.1412457 L2.14198827,15.5141558 C2.54278258,11.2876847 3.64894369,8.15117435 5.4614073,6.1046248 C7.36853323,3.96301053 9.99474965,2.84428015 13.370623,2.74827729 L13.370623,32.7557377 C13.370623,35.3762718 13.0055415,37.0782117 12.2424728,37.8624957 C11.59434,38.5326394 10.4970681,38.9432314 8.95237254,39.0959917 C8.49403227,39.1344554 7.71240539,39.1535309 6.60608833,39.1535309 L6.60608833,41.4486872 L26.6227231,41.4486872 L26.6227231,39.1535309 C25.5164061,39.1535309 24.7346232,39.1344554 24.2765949,39.0959917 C22.7317433,38.9432314 21.6344714,38.5326394 20.9863387,37.8624957 C20.22327,37.0782117 19.8539778,35.3762718 19.8539778,32.7557377 L19.8539778,2.74827729 C23.230319,2.84428015 25.8601223,3.96301053 27.767872,6.1046248 C29.5797118,8.15117435 30.6860289,11.2876847 31.0866672,15.5141558 L33.2380126,15.1412457 L32.8320719,0.797105172" id="Fill-4" fill="#FFFFFE" mask="url(#mask-2)"></path>
                    <path d="M45.6220889,29.6467461 L53.7028508,29.5867052 C54.1817766,32.827349 56.2167824,34.5077117 59.2099518,34.5077117 C62.5019234,34.5077117 64.7766261,32.1073275 64.7766261,28.5064385 C64.7766261,24.8455087 62.382153,22.4451245 58.4315999,22.4451245 L47.0585544,22.4451245 L49.3332571,0.960341304 L72.3187328,0.960341304 L72.3187328,8.22184746 L56.3365529,8.22184746 L55.6183981,15.0635366 L59.0301401,15.0635366 C67.4700574,15.0635366 72.8573879,20.2845911 72.8573879,28.5664794 C72.8573879,36.1880745 67.4700574,42.0093814 59.2099518,42.0093814 C51.3086896,42.0093814 46.2207852,36.9682931 45.6220889,29.6467461" id="Fill-5" fill="#FFFFFE" mask="url(#mask-2)"></path>
                    <path d="M105,19.9245022 L105,22.1450764 C105,35.4080122 99.0740144,42.0093814 88.9580907,42.0093814 C77.3456604,42.0093814 71.47956,33.8475748 71.47956,21.0047689 C71.47956,8.16180659 77.7048158,0 88.778591,0 C97.3981639,0 103.264108,5.22121087 104.40146,12.7228805 L95.7820428,12.7228805 C94.8840764,9.72224394 92.3102595,7.80171769 88.778591,7.80171769 C83.0921463,7.80171769 79.9194773,12.3627916 79.9194773,21.0047689 C79.9194773,29.6467461 82.9723759,34.2076637 88.9580907,34.2076637 C93.2677992,34.2076637 96.0811569,32.2274093 96.7395825,26.8861167 L89.4370166,26.8861167 L89.4370166,19.9245022 L105,19.9245022" id="Fill-6" fill="#FFFFFE" mask="url(#mask-2)"></path>
                </g>
            </g>
        </g>
    </g>
</svg>