<svg width="105" height="42" viewBox="0 0 105 42" fill="none" xmlns="http://www.w3.org/2000/svg">
<g clip-path="url(#clip0_2_6)">
<mask id="mask0_2_6" style="mask-type:alpha" maskUnits="userSpaceOnUse" x="0" y="0" width="105" height="42">
<path d="M0 0H105V42H0V0Z" fill="white"/>
</mask>
<g mask="url(#mask0_2_6)">
<path fill-rule="evenodd" clip-rule="evenodd" d="M0 27.8852H8.20084V19.6532H0V27.8852Z" fill="#FFFFFE"/>
<path fill-rule="evenodd" clip-rule="evenodd" d="M25.0278 27.8852H33.238V19.6532H25.0278V27.8852Z" fill="#FFFFFE"/>
<path fill-rule="evenodd" clip-rule="evenodd" d="M32.8321 0.797104H0.396728L-0.0093689 15.1412L2.14198 15.5142C2.54277 11.2877 3.64893 8.15117 5.4614 6.10462C7.36852 3.96301 9.99474 2.84428 13.3706 2.74828V32.7557C13.3706 35.3763 13.0055 37.0782 12.2425 37.8625C11.5943 38.5326 10.4971 38.9432 8.95236 39.096C8.49402 39.1345 7.71239 39.1535 6.60608 39.1535V41.4487H26.6227V39.1535C25.5164 39.1535 24.7346 39.1345 24.2766 39.096C22.7317 38.9432 21.6345 38.5326 20.9863 37.8625C20.2233 37.0782 19.854 35.3763 19.854 32.7557V2.74828C23.2303 2.84428 25.8601 3.96301 27.7679 6.10462C29.5797 8.15117 30.686 11.2877 31.0867 15.5142L33.238 15.1412L32.8321 0.797104Z" fill="#FFFFFE"/>
<path fill-rule="evenodd" clip-rule="evenodd" d="M105 19.9245V22.1451C105 35.408 99.074 42.0094 88.9581 42.0094C77.3457 42.0094 71.4796 33.8476 71.4796 21.0048C71.4796 8.16181 77.7048 0 88.7786 0C97.3982 0 103.264 5.22121 104.401 12.7229H95.782C94.8841 9.72224 92.3102 7.80172 88.7786 7.80172C83.0921 7.80172 79.9195 12.3628 79.9195 21.0048C79.9195 29.6467 82.9724 34.2077 88.9581 34.2077C93.2678 34.2077 96.0812 32.2274 96.7396 26.8861H89.437V19.9245H105Z" fill="#FFFFFE"/>
</g>
<path d="M77.0391 35.6279V42H48.832V36.5625L62.1709 22.2607C63.5114 20.7692 64.5687 19.457 65.3428 18.3242C66.1169 17.1725 66.6738 16.1436 67.0137 15.2373C67.3724 14.3122 67.5518 13.4342 67.5518 12.6035C67.5518 11.3574 67.3441 10.2907 66.9287 9.40332C66.5133 8.49707 65.8997 7.7985 65.0879 7.30762C64.2949 6.81673 63.3132 6.57129 62.1426 6.57129C60.8965 6.57129 59.8203 6.87337 58.9141 7.47754C58.0267 8.08171 57.347 8.92188 56.875 9.99805C56.4219 11.0742 56.1953 12.292 56.1953 13.6514H48.0107C48.0107 11.1969 48.596 8.9502 49.7666 6.91113C50.9372 4.85319 52.5892 3.22005 54.7227 2.01172C56.8561 0.784505 59.3861 0.170898 62.3125 0.170898C65.2012 0.170898 67.6367 0.642904 69.6191 1.58691C71.6204 2.51204 73.1309 3.85254 74.1504 5.6084C75.1888 7.34538 75.708 9.4222 75.708 11.8389C75.708 13.1982 75.4909 14.5293 75.0566 15.832C74.6224 17.1159 73.9993 18.3997 73.1875 19.6836C72.3945 20.9486 71.4316 22.2324 70.2988 23.5352C69.166 24.8379 67.9105 26.1878 66.5322 27.585L59.3672 35.6279H77.0391Z" fill="white"/>
</g>
<defs>
<clipPath id="clip0_2_6">
<rect width="105" height="42" fill="white"/>
</clipPath>
</defs>
</svg>
