<svg xmlns="http://www.w3.org/2000/svg" xmlns:xlink="http://www.w3.org/1999/xlink" viewBox="0 0 19 16">
  <path
    d="M5.901 15.236c7.073 0 10.942-5.828 10.942-10.882 0-.165 0-.33-.012-.494a7.8 7.8 0 001.919-1.98 7.709 7.709 0 01-2.209.602 3.841 3.841 0 001.69-2.115c-.754.445-1.58.76-2.441.928a3.865 3.865 0 00-4.62-.752 3.82 3.82 0 00-1.933 4.24A10.938 10.938 0 011.31.788a3.814 3.814 0 001.191 5.105 3.833 3.833 0 01-1.745-.48v.05A3.83 3.83 0 003.842 9.21a3.86 3.86 0 01-1.737.066 3.847 3.847 0 003.593 2.656 7.743 7.743 0 01-5.691 1.585 10.93 10.93 0 005.894 1.715"
    fill="#FFF" fill-rule="nonzero"></path>
</svg>
